<svg id="Laag_1" data-name="Laag 1" xmlns="http://www.w3.org/2000/svg" viewBox="0 0 298 76"><defs><style>.cls-1{fill:#f6ca00;}.cls-2,.cls-4{fill:#fff;}.cls-3{fill:#1f3339;}.cls-4{font-size:77.23px;font-family:Impact, Impact;}</style></defs><title>Tekengebied 1</title><path class="cls-1" d="M16.4,28.62c0-7.22,5.16-13.08,11.49-13.08s11.49,5.87,11.49,13.08V36.7h8.94V28.61c0-12.83-9.17-23.26-20.44-23.26S7.46,15.8,7.46,28.62v8.09H16.4Z"/><path class="cls-1" d="M44.9,69.28H11.65a7,7,0,0,1-7-7v-22a7,7,0,0,1,7-7H44.9a7,7,0,0,1,7,7v22A7,7,0,0,1,44.9,69.28Z"/><path class="cls-2" d="M44.9,33.26H28.27v36H44.9a7,7,0,0,0,7-7v-22A7,7,0,0,0,44.9,33.26Z"/><path class="cls-3" d="M30.67,50.68a.83.83,0,0,0-.38.78c0,1.56,0,3.12,0,4.68a1.67,1.67,0,0,1-.88,1.57,1.82,1.82,0,0,1-2.73-1.57h0c0-1.56,0-3.13,0-4.69a.8.8,0,0,0-.35-.74,3.57,3.57,0,0,1-1.18-4.39,3.64,3.64,0,0,1,7,1.43A3.46,3.46,0,0,1,30.67,50.68Z"/><text class="cls-4" transform="translate(76.71 71.14) scale(0.93 1)">CRYPTO</text></svg>