<svg id="Laag_1" data-name="Laag 1" xmlns="http://www.w3.org/2000/svg" viewBox="0 0 1366 768"><defs><style>.cls-1,.cls-4{fill:#f6ca00;}.cls-2{fill:#fff;}.cls-3{fill:#1f3339;}.cls-4{font-size:77.23px;font-family:Impact, Impact;}</style></defs><title>Tekengebied 1</title><path class="cls-1" d="M602.4,380.62c0-7.22,5.16-13.08,11.49-13.08s11.49,5.87,11.49,13.08v8.08h8.94v-8.09c0-12.83-9.17-23.26-20.44-23.26s-20.44,10.45-20.44,23.28v8.09h8.94Z"/><path class="cls-1" d="M630.9,421.28H597.65a7,7,0,0,1-7-7v-22a7,7,0,0,1,7-7H630.9a7,7,0,0,1,7,7v22A7,7,0,0,1,630.9,421.28Z"/><path class="cls-2" d="M630.9,385.26H614.27v36H630.9a7,7,0,0,0,7-7v-22A7,7,0,0,0,630.9,385.26Z"/><path class="cls-3" d="M616.67,402.68a.83.83,0,0,0-.38.78c0,1.56,0,3.12,0,4.68a1.67,1.67,0,0,1-.88,1.57,1.82,1.82,0,0,1-2.73-1.57h0c0-1.56,0-3.13,0-4.69a.8.8,0,0,0-.35-.74,3.57,3.57,0,0,1-1.18-4.39,3.64,3.64,0,0,1,7,1.43A3.46,3.46,0,0,1,616.67,402.68Z"/><text class="cls-4" transform="translate(662.71 423.14) scale(0.93 1)">CRYPTO</text></svg>