<?xml version="1.0" encoding="utf-8"?>
<!-- Generator: Adobe Illustrator 21.0.0, SVG Export Plug-In . SVG Version: 6.00 Build 0)  -->
<svg version="1.1" id="Capa_1" xmlns="http://www.w3.org/2000/svg" xmlns:xlink="http://www.w3.org/1999/xlink" x="0px" y="0px"
	 viewBox="0 0 512 512" style="enable-background:new 0 0 512 512;" xml:space="preserve">
<style type="text/css">
	.st0{fill:#FFFFFF;}
	.st1{fill:#2A363B;}
	.st2{font-family:'Arial-Black';}
	.st3{font-size:165.1189px;}
</style>
<circle class="st0" cx="333.6" cy="360" r="73"/>
<g>
	<path class="st0" d="M305.1,327.8c31-13,55.4-30.8,73.3-53.3c17.9-22.5,26.9-46.9,26.9-73.4c0-26.5-9-51-26.9-73.4
		c-17.9-22.5-42.3-40.2-73.3-53.3c-31-13-64.6-19.6-101-19.6c-36.4,0-70,6.5-101,19.6c-31,13-55.4,30.8-73.3,53.3
		C12,150.2,3,174.7,3,201.1c0,22.7,6.8,44,20.3,64c13.5,20,32.1,36.9,55.7,50.6c-1.9,4.6-3.9,8.8-5.9,12.6c-2,3.8-4.4,7.5-7.1,11
		c-2.8,3.5-4.9,6.3-6.4,8.3c-1.5,2-4,4.8-7.4,8.4c-3.4,3.6-5.6,6-6.6,7.1c0-0.2-0.4,0.2-1.1,1.3c-0.8,1-1.2,1.5-1.3,1.4
		c-0.1-0.1-0.5,0.4-1.1,1.4c-0.7,1-1,1.6-1,1.6l-0.7,1.4c-0.3,0.6-0.5,1.1-0.6,1.7c-0.1,0.6-0.1,1.2-0.1,1.9c0,0.7,0.1,1.3,0.3,1.9
		c0.4,2.5,1.5,4.5,3.3,6c1.8,1.5,3.8,2.3,5.9,2.3h0.9c9.5-1.3,17.7-2.9,24.6-4.6c29.3-7.6,55.8-19.8,79.4-36.6
		c17.1,3,33.9,4.6,50.3,4.6C240.5,347.4,274.2,340.9,305.1,327.8z M145.3,304l-12.6,8.9c-5.3,3.6-11.2,7.3-17.7,11.1l10-24l-27.7-16
		c-18.3-10.7-32.5-23.2-42.6-37.7c-10.1-14.5-15.1-29.5-15.1-45.1c0-19.4,7.5-37.6,22.4-54.6c14.9-17,35.1-30.4,60.4-40.3
		c25.3-9.9,52.6-14.9,81.7-14.9s56.4,5,81.7,14.9c25.3,9.9,45.5,23.3,60.4,40.3c15,17,22.4,35.1,22.4,54.6
		c0,19.4-7.5,37.6-22.4,54.6c-15,17-35.1,30.4-60.4,40.3c-25.3,9.9-52.6,14.9-81.7,14.9c-14.3,0-28.9-1.3-43.7-4L145.3,304z"/>
</g>
<text transform="matrix(1 0 0 1 282.8953 418.6535)" class="st1 st2 st3">+</text>
</svg>
