<?xml version="1.0" encoding="utf-8"?>
<!-- Generator: Adobe Illustrator 21.0.0, SVG Export Plug-In . SVG Version: 6.00 Build 0)  -->
<svg version="1.1" id="Laag_1" xmlns="http://www.w3.org/2000/svg" xmlns:xlink="http://www.w3.org/1999/xlink" x="0px" y="0px"
	 viewBox="0 0 301 77" style="enable-background:new 0 0 301 77;" xml:space="preserve">
<style type="text/css">
	.st0{fill:#F6CA00;}
	.st1{fill:#FFFFFF;}
	.st2{fill:#1F3339;}
	.st3{font-family:'Impact';}
	.st4{font-size:77.23px;}
</style>
<title>Tekengebied 1</title>
<path class="st0" d="M18.4,29.6c0-7.2,5.2-13.1,11.5-13.1s11.5,5.9,11.5,13.1v8.1h8.9v-8.1c0-12.8-9.2-23.3-20.4-23.3
	S9.4,16.8,9.4,29.6v8.1h8.9L18.4,29.6z"/>
<path class="st0" d="M46.9,70.3H13.7c-3.9,0-7-3.1-7-7v-22c0-3.9,3.1-7,7-7h33.3c3.9,0,7,3.1,7,7v22C53.9,67.1,50.8,70.3,46.9,70.3z
	"/>
<path class="st1" d="M46.9,34.3H30.3v36h16.6c3.9,0,7-3.1,7-7v-22C53.9,37.4,50.8,34.3,46.9,34.3z"/>
<path class="st2" d="M32.7,51.7c-0.3,0.2-0.4,0.5-0.4,0.8c0,1.6,0,3.1,0,4.7c0,0.7-0.3,1.3-0.9,1.6c-0.9,0.5-2,0.2-2.5-0.7
	c-0.2-0.3-0.2-0.6-0.2-0.9l0,0c0-1.6,0-3.1,0-4.7c0-0.3-0.1-0.6-0.3-0.7c-1.4-1-1.9-2.8-1.2-4.4c0.8-1.9,2.9-2.7,4.8-2
	c1.4,0.6,2.3,1.9,2.2,3.4C34.2,49.9,33.6,51,32.7,51.7z"/>
<text transform="matrix(0.93 0 0 1 78.71 72.1396)" class="st0 st3 st4">CRYPTO</text>
</svg>
